<svg width="42" height="42" viewBox="0 0 42 42" fill="none" xmlns="http://www.w3.org/2000/svg">
<path fill-rule="evenodd" clip-rule="evenodd" d="M21 2.29562C24.8817 2.29562 28.2 5.64853 28.2 10.0018C28.2 14.3551 24.8817 17.708 21 17.708C17.1183 17.708 13.8 14.3551 13.8 10.0018C13.8 5.64853 17.1183 2.29562 21 2.29562ZM21 0.5C25.9706 0.5 30 4.75411 30 10.0018C30 15.2495 25.9706 19.5036 21 19.5036C16.0294 19.5036 12 15.2495 12 10.0018C12 4.75411 16.0294 0.5 21 0.5Z" fill="#FED7AA"/>
<path d="M0 17.5584H42V34.0182C42 38.1503 38.6421 41.5 34.5 41.5H7.5C3.35786 41.5 0 38.1503 0 34.0182V17.5584Z" fill="#FED7AA"/>
<path d="M42 17.4088C42 21.5408 32.598 24.8905 21 24.8905C9.40202 24.8905 0 21.5408 0 17.4088C0 13.2767 9.40202 9.92701 21 9.92701C32.598 9.92701 42 13.2767 42 17.4088Z" fill="#7C2D12"/>
<path fill-rule="evenodd" clip-rule="evenodd" d="M39.2852 19.0634C40.1495 18.3354 40.35 17.7694 40.35 17.4088C40.35 17.0481 40.1495 16.4821 39.2852 15.7541C38.4286 15.0326 37.0913 14.3087 35.2943 13.6685C31.7147 12.3931 26.6611 11.573 21 11.573C15.3389 11.573 10.2853 12.3931 6.70571 13.6685C4.90874 14.3087 3.57138 15.0326 2.71479 15.7541C1.85054 16.4821 1.65 17.0481 1.65 17.4088C1.65 17.7694 1.85054 18.3354 2.71479 19.0634C3.57138 19.7849 4.90874 20.5088 6.70571 21.1491C10.2853 22.4244 15.3389 23.2445 21 23.2445C26.6611 23.2445 31.7147 22.4244 35.2943 21.1491C37.0913 20.5088 38.4286 19.7849 39.2852 19.0634ZM21 24.8905C32.598 24.8905 42 21.5408 42 17.4088C42 13.2767 32.598 9.92701 21 9.92701C9.40202 9.92701 0 13.2767 0 17.4088C0 21.5408 9.40202 24.8905 21 24.8905Z" fill="#FED7AA"/>
<path d="M31.35 32.073C31.35 33.3952 30.2755 34.4672 28.95 34.4672C27.6245 34.4672 26.55 33.3952 26.55 32.073C26.55 30.7507 27.6245 29.6788 28.95 29.6788C30.2755 29.6788 31.35 30.7507 31.35 32.073Z" fill="#7C2D12"/>
<path d="M14.4 32.073C14.4 33.3952 13.3255 34.4672 12 34.4672C10.6745 34.4672 9.6 33.3952 9.6 32.073C9.6 30.7507 10.6745 29.6788 12 29.6788C13.3255 29.6788 14.4 30.7507 14.4 32.073Z" fill="#7C2D12"/>
<path fill-rule="evenodd" clip-rule="evenodd" d="M21 14.865C24.8817 14.865 28.2 18.2179 28.2 22.5712C28.2 26.9245 24.8817 30.2774 21 30.2774C17.1183 30.2774 13.8 26.9245 13.8 22.5712C13.8 18.2179 17.1183 14.865 21 14.865ZM21 13.0693C25.9706 13.0693 30 17.3235 30 22.5712C30 27.8189 25.9706 32.073 21 32.073C16.0294 32.073 12 27.8189 12 22.5712C12 17.3235 16.0294 13.0693 21 13.0693Z" fill="#FED7AA"/>
</svg>
